# xmcd
#
# Track frame offsets: 
#        151
#        19458
#        42137
#        44024
#        66348
#        85046
#
# Disc length: 1141 seconds
#
# Revision: 0
# Processed by: cddbd v1.5.2PL0 Copyright (c) Steve Scherf et al.
# Submitted via: ExactAudioCopy v0.99pb3
#
DISCID=4d047306
DTITLE=Debasser - Dark Smile
DYEAR=2003
DGENRE=Novamute
TTITLE0=Dark Smile
TTITLE1=You Should Know
TTITLE2=Dirty Names (acapella)
TTITLE3=You're Wrong
TTITLE4=Dirty Names
TTITLE5=Debasser (Skit)
EXTD=
EXTT0=
EXTT1=
EXTT2=
EXTT3=
EXTT4=
EXTT5=
PLAYORDER=
